<?xml version="1.0" encoding="utf-8"?>
<!-- Generator: Adobe Illustrator 25.2.0, SVG Export Plug-In . SVG Version: 6.00 Build 0)  -->
<svg version="1.1" id="Layer_1" xmlns="http://www.w3.org/2000/svg" xmlns:xlink="http://www.w3.org/1999/xlink" x="0px" y="0px"
	 viewBox="0 0 612 792" style="enable-background:new 0 0 612 792;" xml:space="preserve">
<style type="text/css">
	.st0{fill:#112E51;}
	.st1{fill:#FFFFFF;}
	.st2{fill:#FDB736;}
</style>
<path class="st0" d="M491.1,373l39.7-173.1H293.2c-45.3,0-78.3,5.7-104.1,17.9c-32.6,15.4-54.3,42.7-62.5,78.7L84.5,479.8
	c-7.1,30.8-2.9,56.3,12.4,75.6c20.3,25.7,56.1,36.6,119.6,36.6h224.6l31.2-135.9H288l19.2-83.2H491.1z"/>
<path class="st1" d="M265.3,476.4h184.3l-21.9,95.4H219c-56.7,0-87.8-8.7-103.8-28.9c-11.5-14.5-14.2-33.6-8.5-58.4l42.1-183.4
	c6.9-30.2,24.3-52.1,51.6-65c23-10.9,53.3-15.9,95.5-15.9h212.3l-30.4,132.6H335.2l8.5-37.1h-41.5L265.3,476.4z"/>
<path class="st2" d="M492.4,234.2l-24,104.5H354.5l8.5-37.1H293l-43.4,188.9h184.3l-15.5,67.4H220.8c-74.1,0-111.6-14.2-98.7-70.1
	l42.1-183.4c12.5-54.5,60.2-70.1,133.6-70.1H492.4z"/>
</svg>
